<svg id="ttl_lineup.svg" xmlns="http://www.w3.org/2000/svg" width="126.47" height="55.75" viewBox="0 0 126.47 55.75">
  <defs>
    <style>
      .cls-1 {
        fill: #2173c6;
      }

      .cls-1, .cls-2 {
        fill-rule: evenodd;
      }

      .cls-2 {
        fill: #333;
      }
    </style>
  </defs>
  <path id="Line_up" data-name="Line up" class="cls-1" d="M4039.98,912.325v-7.267h-2.03v9.009h6.02v-1.742h-3.99Zm7.23-5.1h-1.94v6.838h1.94v-6.838Zm-0.17-2.814a1.225,1.225,0,0,0-1.62,0,1.179,1.179,0,0,0,0,1.677,1.228,1.228,0,0,0,1.62,0A1.179,1.179,0,0,0,4047.04,904.415Zm2.12,9.652h1.93v-5.278q0.18-.025.42-0.045c0.16-.013.3-0.02,0.44-0.02a1,1,0,0,1,.92.39,2.55,2.55,0,0,1,.25,1.326v3.627h1.94v-3.861a5.547,5.547,0,0,0-.14-1.274,2.528,2.528,0,0,0-.49-0.988,2.162,2.162,0,0,0-.91-0.643,4,4,0,0,0-1.45-.228,10.553,10.553,0,0,0-1.64.124,10.749,10.749,0,0,0-1.27.266v6.6Zm7.67-1.963a3.055,3.055,0,0,0,.67,1.125,3.01,3.01,0,0,0,1.13.747,4.281,4.281,0,0,0,1.6.273,6.866,6.866,0,0,0,.73-0.039c0.24-.026.47-0.058,0.68-0.1a4.891,4.891,0,0,0,.58-0.137,3.178,3.178,0,0,0,.42-0.156l-0.26-1.573a4.026,4.026,0,0,1-.84.241,5.58,5.58,0,0,1-1.05.1,2.238,2.238,0,0,1-1.32-.351,1.276,1.276,0,0,1-.56-0.949H4063q0.015-.156.03-0.357c0.01-.134.01-0.258,0.01-0.371a3.683,3.683,0,0,0-.84-2.619,3.051,3.051,0,0,0-2.31-.891,3.255,3.255,0,0,0-1.21.234,3.084,3.084,0,0,0-1.05.689,3.368,3.368,0,0,0-.73,1.138,4.112,4.112,0,0,0-.28,1.592A4.539,4.539,0,0,0,4056.83,912.1Zm1.78-2.145a2.115,2.115,0,0,1,.12-0.487,1.482,1.482,0,0,1,.24-0.423,1.194,1.194,0,0,1,.95-0.4,1.259,1.259,0,0,1,.57.117,1.175,1.175,0,0,1,.37.3,1.084,1.084,0,0,1,.22.416,1.965,1.965,0,0,1,.09.481h-2.56Zm15.14-2.73h-1.93v5.278c-0.13.018-.26,0.033-0.42,0.046s-0.3.019-.44,0.019a1,1,0,0,1-.93-0.416,2.839,2.839,0,0,1-.24-1.352v-3.575h-1.94v3.809a5.716,5.716,0,0,0,.14,1.287,2.711,2.711,0,0,0,.48,1.008,2.277,2.277,0,0,0,.92.656,3.91,3.91,0,0,0,1.45.234,11.124,11.124,0,0,0,2.91-.39v-6.6Zm4.96,5.33a2.376,2.376,0,0,1-.6-0.078,1.7,1.7,0,0,1-.47-0.2v-3.5c0.09-.017.22-0.032,0.36-0.045s0.31-.02.48-0.02a1.405,1.405,0,0,1,1.2.54,2.334,2.334,0,0,1,.4,1.436c0,1.24-.46,1.859-1.37,1.859h0Zm3.11-3.393a2.985,2.985,0,0,0-.7-1.124,3.051,3.051,0,0,0-1.11-.715,4.255,4.255,0,0,0-1.51-.254c-0.24,0-.48.011-0.74,0.033s-0.5.05-.75,0.084-0.48.076-.71,0.124-0.42.1-.6,0.149v9.009h1.94V913.9a3.557,3.557,0,0,0,.68.221,3.4,3.4,0,0,0,.75.078,3.065,3.065,0,0,0,1.29-.26,2.569,2.569,0,0,0,.93-0.728,3.261,3.261,0,0,0,.57-1.118,5,5,0,0,0,.2-1.443A4.33,4.33,0,0,0,4081.82,909.166Z" transform="translate(-3996.94 -860.719)"/>
  <path id="商品紹介" class="cls-2" d="M4013.98,887.715c1.99,0,3.3-.512,3.3-2.719v-2.432c0-1.888-.93-2.72-3.3-2.72h-5.44c-2.36,0-3.29.832-3.29,2.72V885c0,1.887.93,2.719,3.29,2.719h5.44Zm-4.73-2.368c-0.55,0-.87-0.064-0.87-0.671v-1.792c0-.512.16-0.672,0.87-0.672h4.03c0.7,0,.86.16,0.86,0.672v1.792c0,0.511-.16.671-0.86,0.671h-4.03Zm3.07-12.127v3.168c0,1.792.83,2.3,3.81,2.3,2.81,0,3.81-.48,4.16-2.944v-0.192a1.345,1.345,0,0,0-1.47-1.216,1.188,1.188,0,0,0-1.28.992c-0.13.864-.32,1.024-1.38,1.024-0.8,0-.9-0.128-0.9-0.512V873.22h4.2c1.12,0,1.37.32,1.37,1.248v12.1c0,0.832-.35.96-0.86,0.96a6.578,6.578,0,0,1-1.28-.128,1.122,1.122,0,0,0-.32-0.032,1.485,1.485,0,0,0-1.41,1.6,1.442,1.442,0,0,0,1.18,1.5,11.453,11.453,0,0,0,2.34.192c2.59,0,3.74-1.056,3.74-3.872V874.116c0-2.5-1.18-3.647-4.28-3.647h-3.59c0.45-.736.83-1.44,1.09-1.984a1.285,1.285,0,0,0-.77-1.856h7.84a1.436,1.436,0,0,0,0-2.848H4012.9v-1.728a1.785,1.785,0,0,0-3.46,0v1.728h-11.26a1.436,1.436,0,0,0,0,2.848h7.39a1.278,1.278,0,0,0-.8,1.152,1.234,1.234,0,0,0,.25.768c0.45,0.608.77,1.12,1.06,1.6a1.116,1.116,0,0,0,.26.32h-3.68c-3.11,0-4.29,1.151-4.29,3.647v15.423a1.506,1.506,0,0,0,1.7,1.312,1.486,1.486,0,0,0,1.69-1.312V874.468c0-.928.26-1.248,1.38-1.248h3.61a6.21,6.21,0,0,1-3.39,4.416,1.431,1.431,0,0,0-.86,1.28,1.476,1.476,0,0,0,1.44,1.44,1.569,1.569,0,0,0,.7-0.192,8.988,8.988,0,0,0,5.09-6.944h2.59Zm-3.74-2.751a1.316,1.316,0,0,0,.54-1.024,1.384,1.384,0,0,0-.22-0.736,14.293,14.293,0,0,0-1.16-1.632,1.778,1.778,0,0,0-.54-0.448h7.81a1.606,1.606,0,0,0-.64.736,25.233,25.233,0,0,1-1.63,3.1h-4.16Zm39.04,2.911c2.46,0,4.25-.544,4.25-3.359v-4.608c0-2.3-1.18-3.36-4.25-3.36h-7.97c-3.07,0-4.26,1.056-4.26,3.36v4.608c0,2.3,1.19,3.359,4.26,3.359h7.97Zm-7.36-2.879c-0.84,0-1.41-.1-1.41-1.056v-3.456c0-.768.25-1.056,1.41-1.056h6.75c1.15,0,1.41.288,1.41,1.056v3.456c0,0.768-.26,1.056-1.41,1.056h-6.75Zm-2.44,18.974c2.5,0,3.94-.8,3.94-3.488v-6.111c0-2.432-1.22-3.488-3.94-3.488h-3.93c-2.72,0-3.94,1.056-3.94,3.488v6.111c0,2.432,1.22,3.488,3.94,3.488h3.93Zm-3.39-2.88a0.89,0.89,0,0,1-1.09-1.056v-5.215a0.891,0.891,0,0,1,1.09-1.056h2.85a0.891,0.891,0,0,1,1.09,1.056v5.215a0.891,0.891,0,0,1-1.09,1.056h-2.85Zm18.95,2.88c2.49,0,3.93-.8,3.93-3.488v-6.111c0-2.432-1.21-3.488-3.93-3.488h-4.32c-2.72,0-3.94,1.056-3.94,3.488v6.111c0,2.432,1.22,3.488,3.94,3.488h4.32Zm-3.78-2.88a0.89,0.89,0,0,1-1.09-1.056v-5.215a0.891,0.891,0,0,1,1.09-1.056h3.23a0.891,0.891,0,0,1,1.09,1.056v5.215a0.891,0.891,0,0,1-1.09,1.056h-3.23Zm16.58,3.1a1.438,1.438,0,0,0,1.63,1.248,1.422,1.422,0,0,0,1.63-1.248V877.6c0.67-.064,1.38-0.16,2.05-0.288,0.06,0.224.16,0.448,0.22,0.64a1.275,1.275,0,0,0,1.25.832,1.46,1.46,0,0,0,1.54-1.344,1.723,1.723,0,0,0-.1-0.512,20.111,20.111,0,0,0-2.14-4.192,1.424,1.424,0,0,0-1.22-.672,1.347,1.347,0,0,0-1.38,1.216,1.322,1.322,0,0,0,.2.64c0.12,0.224.28,0.48,0.41,0.736-0.89.1-1.79,0.16-2.72,0.224a62.513,62.513,0,0,0,4.55-7.1,1.678,1.678,0,0,0,.19-0.736,1.608,1.608,0,0,0-1.63-1.44,1.442,1.442,0,0,0-1.32.832c-0.48.96-1.08,2.016-1.72,3.136-0.32-.416-0.68-0.8-1-1.152a36.878,36.878,0,0,0,2.72-5.184,1.393,1.393,0,0,0,.13-0.576,1.544,1.544,0,0,0-1.66-1.408,1.482,1.482,0,0,0-1.44.96,37.654,37.654,0,0,1-1.95,4.032l-0.07-.064a1.412,1.412,0,0,0-1.02-.416,1.536,1.536,0,0,0-1.5,1.472,1.312,1.312,0,0,0,.48,1.024c1.18,1.152,2.49,2.528,3.67,3.935-0.64.992-1.31,1.952-1.98,2.88-0.54.032-1.05,0.064-1.57,0.064a1.348,1.348,0,0,0-1.31,1.5,1.362,1.362,0,0,0,1.38,1.5c1.18-.032,2.4-0.1,3.68-0.224V889.7Zm19.32,0.288c2.47,0,4-.608,4-3.328V880.9c0-2.176-.99-3.328-4-3.328h-5.44c-2.97,0-4,1.152-4,3.328v5.663c0,2.176,1.03,3.424,4,3.424h5.44Zm-5.15-2.88a0.774,0.774,0,0,1-.96-0.9v-4.863a0.775,0.775,0,0,1,.96-0.9h4.83c0.77,0,1,.256,1,0.9v4.863c0,0.64-.23.9-1,0.9h-4.83Zm5.28-21.438c0.64,0,.87.192,0.87,0.7a23.6,23.6,0,0,1-.64,5.151,0.981,0.981,0,0,1-1.06.864,6.128,6.128,0,0,1-1.22-.16,1.373,1.373,0,0,0-.35-0.032,1.592,1.592,0,0,0-.16,3.168,12.366,12.366,0,0,0,2.11.192c2.15,0,3.36-.928,3.91-3.232a28.459,28.459,0,0,0,.73-6.463V865.7c0-1.984-1.12-3.04-3.71-3.04H4076.1a1.373,1.373,0,0,0-1.35,1.5,1.39,1.39,0,0,0,1.35,1.5h3.1a11,11,0,0,1-4,7.615,1.94,1.94,0,0,0-.77,1.472,1.629,1.629,0,0,0,1.63,1.568,2,2,0,0,0,1.38-.576,14.526,14.526,0,0,0,5.02-10.079h3.17Zm-12.96,14.5a1.3,1.3,0,0,0-1.28-.9,1.286,1.286,0,0,0-1.37,1.152,1.7,1.7,0,0,0,.06.384,28.854,28.854,0,0,1,1.06,4.32,1.263,1.263,0,0,0,1.31,1.055,1.373,1.373,0,0,0,1.44-1.343c0-.1-0.03-0.224-0.03-0.32A21.455,21.455,0,0,0,4072.67,880.164Zm-9.79.544a23.514,23.514,0,0,1-1.41,5.247,1.569,1.569,0,0,0-.12.608,1.349,1.349,0,0,0,1.4,1.28,1.48,1.48,0,0,0,1.41-.96,23.909,23.909,0,0,0,1.44-5.823V880.9a1.289,1.289,0,0,0-1.41-1.248A1.256,1.256,0,0,0,4062.88,880.708Zm47.1-17.951a1.456,1.456,0,0,0,.1-0.512,1.658,1.658,0,0,0-1.79-1.5,1.912,1.912,0,0,0-1.6.8,41.476,41.476,0,0,1-12.58,11.327,1.806,1.806,0,0,0-.99,1.568,1.7,1.7,0,0,0,1.67,1.7,1.769,1.769,0,0,0,.92-0.256,47.167,47.167,0,0,0,12.39-10.5,44.768,44.768,0,0,0,12.41,9.951,2.418,2.418,0,0,0,1.12.32,1.778,1.778,0,0,0,1.76-1.792,1.887,1.887,0,0,0-1.15-1.728A39.188,39.188,0,0,1,4109.98,862.757Zm1.57,26.622a1.839,1.839,0,0,0,3.59,0V874.34a1.839,1.839,0,0,0-3.59,0v15.039Zm-10.14-12.159c0,4.832-1.41,8.1-4.67,10.591a2.139,2.139,0,0,0-.93,1.632,1.616,1.616,0,0,0,1.66,1.6,2.328,2.328,0,0,0,1.31-.48c4.13-3.04,6.21-7.487,6.21-13.183v-3.04a1.833,1.833,0,0,0-3.58,0v2.88Z" transform="translate(-3996.94 -860.719)"/>
</svg>
